<mxfile host="65bd71144e">
    <diagram id="ra-EoIl_YPVGkW-rnbu_" name="Page-1">
        <mxGraphModel dx="980" dy="654" grid="0" gridSize="11" guides="1" tooltips="1" connect="1" arrows="1" fold="1" page="1" pageScale="1" pageWidth="850" pageHeight="1100" math="0" shadow="0">
            <root>
                <mxCell id="0"/>
                <mxCell id="1" parent="0"/>
                <mxCell id="37" value="" style="points=[];aspect=fixed;html=1;align=center;shadow=0;dashed=0;image;image=img/lib/allied_telesis/computer_and_terminals/Server_Desktop.svg;strokeWidth=2;fontSize=15;" vertex="1" parent="1">
                    <mxGeometry x="518" y="239.33" width="121.23" height="153.67" as="geometry"/>
                </mxCell>
                <mxCell id="35" value="" style="points=[];aspect=fixed;html=1;align=center;shadow=0;dashed=0;image;image=img/lib/allied_telesis/computer_and_terminals/Server_Desktop.svg;strokeWidth=2;fontSize=15;" vertex="1" parent="1">
                    <mxGeometry x="118" y="233" width="121.23" height="153.67" as="geometry"/>
                </mxCell>
                <mxCell id="43" style="edgeStyle=none;html=1;strokeColor=#66B2FF;strokeWidth=3;fontSize=15;" edge="1" parent="1" source="30" target="39">
                    <mxGeometry relative="1" as="geometry"/>
                </mxCell>
                <mxCell id="30" value="" style="html=1;verticalLabelPosition=bottom;align=center;labelBackgroundColor=#ffffff;verticalAlign=top;strokeWidth=2;strokeColor=#82b366;shadow=0;dashed=0;shape=mxgraph.ios7.icons.cube;fontSize=15;fillColor=#d5e8d4;" vertex="1" parent="1">
                    <mxGeometry x="202" y="316" width="61.77" height="61" as="geometry"/>
                </mxCell>
                <mxCell id="44" style="edgeStyle=none;html=1;exitX=0.75;exitY=1;exitDx=0;exitDy=0;strokeColor=#66B2FF;strokeWidth=3;fontSize=15;" edge="1" parent="1" source="39" target="41">
                    <mxGeometry relative="1" as="geometry"/>
                </mxCell>
                <mxCell id="39" value="" style="rounded=1;whiteSpace=wrap;html=1;strokeWidth=2;fontSize=15;fillColor=#fff2cc;strokeColor=#d6b656;" vertex="1" parent="1">
                    <mxGeometry x="327" y="65" width="177" height="122" as="geometry"/>
                </mxCell>
                <mxCell id="41" value="" style="html=1;verticalLabelPosition=bottom;align=center;labelBackgroundColor=#ffffff;verticalAlign=top;strokeWidth=2;strokeColor=#82b366;shadow=0;dashed=0;shape=mxgraph.ios7.icons.cube;fontSize=15;fillColor=#d5e8d4;" vertex="1" parent="1">
                    <mxGeometry x="610" y="317" width="61.77" height="61" as="geometry"/>
                </mxCell>
                <mxCell id="42" value="" style="html=1;verticalLabelPosition=bottom;align=center;labelBackgroundColor=#ffffff;verticalAlign=top;strokeWidth=2;strokeColor=#82b366;shadow=0;dashed=0;shape=mxgraph.ios7.icons.cube;fontSize=15;fillColor=#d5e8d4;" vertex="1" parent="1">
                    <mxGeometry x="384.61" y="102" width="61.77" height="61" as="geometry"/>
                </mxCell>
                <mxCell id="45" value="&lt;b&gt;REGISTRY(Docker Hub)&lt;/b&gt;" style="text;html=1;align=center;verticalAlign=middle;resizable=0;points=[];autosize=1;strokeColor=none;fillColor=none;fontSize=15;" vertex="1" parent="1">
                    <mxGeometry x="321.49" y="35" width="188" height="30" as="geometry"/>
                </mxCell>
                <mxCell id="46" value="&lt;b&gt;DEV&lt;/b&gt;" style="text;html=1;align=center;verticalAlign=middle;resizable=0;points=[];autosize=1;strokeColor=none;fillColor=none;fontSize=15;" vertex="1" parent="1">
                    <mxGeometry x="114" y="215" width="49" height="30" as="geometry"/>
                </mxCell>
                <mxCell id="47" value="&lt;b&gt;TEST/PROD&lt;/b&gt;" style="text;html=1;align=center;verticalAlign=middle;resizable=0;points=[];autosize=1;strokeColor=none;fillColor=none;fontSize=15;" vertex="1" parent="1">
                    <mxGeometry x="595.77" y="220" width="104" height="30" as="geometry"/>
                </mxCell>
            </root>
        </mxGraphModel>
    </diagram>
</mxfile>